<svg version="1.1" id="Layer_1" xmlns="http://www.w3.org/2000/svg" x="0" y="0" viewBox="0 0 256 256" style="enable-background:new 0 0 256 256" xml:space="preserve"><style>.st0{fill:#4671c6}.st1{fill:#f9cfcf}.st4{fill:#3762cc}</style><path d="M203.584 166.047v-1.913c15.674-9.91 9.982-32.893-8.728-35.224-.854-.106-1.326-.958-.928-1.676 9.474-17.106-11.017-35.363-28.657-25.579-.888.493-1.963-.33-1.586-1.269 4.92-12.275-4.357-25.241-17.793-26.105-7.309-.47-13.871 2.658-17.888 7.688-11.202-14.029-34.853-7.774-36.869 9.414a18.324 18.324 0 0 0 1.188 9.003 1.007 1.007 0 0 1-.482 1.278c-.282.172-.73.199-1.104-.009-17.592-9.757-38.151 8.438-28.657 25.579.398.718-.075 1.57-.928 1.676-18.723 2.333-24.387 25.323-8.728 35.224v1.913c-5.49 3.472-9.103 9.368-9.103 16.06 0 11.666 10.822 19.801 20.579 19.336.956-.001 1.554.955 1.065 1.728-2.181 3.444-3.258 7.578-2.765 11.973 1.694 15.104 20.866 22.672 33.534 12.797.712-.555 1.8-.166 1.952.692 1.626 9.15 10.082 16.124 20.271 16.124 3.65 0 7.075-.899 10.046-2.468 12.338 6.518 27.97-.452 30.317-13.655.152-.858 1.24-1.247 1.952-.692 3.913 3.05 9.044 4.764 14.608 4.39 15.072-1.013 24-16.781 16.162-29.16-.489-.773.109-1.729 1.065-1.728 19.058.906 28.948-24.35 11.477-35.397z" style="fill:#f9a7a7"/><path class="st1" d="M99.153 186.988c.031 10.23 8.752 18.75 19.848 18.75 4.262-.013 4.311-6.484-.062-6.484-11.787 0-17.688-13.196-9.506-20.942 2.514-2.379 5.876-3.695 9.467-3.705 4.29-.012 4.262-6.507-.019-6.484-10.804.03-19.764 8.346-19.728 18.865z"/><path class="st1" d="M207.777 165.09c14.477-11.975 8.694-34.455-9.783-38.9 6.948-17.777-11.093-35.376-30.015-29.231 3.396-21.22-23.647-34.516-39.974-19.665-16.327-14.866-43.371-1.537-39.976 19.665-18.932-6.148-36.971 11.477-30.013 29.231-10.399 2.501-17.936 11.484-17.936 21.884 0 6.583 3 12.755 8.151 17.016-15.299 12.656-7.837 36.728 12.384 39.381-8.799 20.268 15.259 39.235 34.632 27.721 4.3 13.109 19.797 19.415 32.757 13.691 12.969 5.729 28.459-.589 32.756-13.691 19.412 11.546 43.414-7.495 34.632-27.718 20.183-2.636 27.707-26.71 12.385-39.384zm-83.015 75.127c-10.169 4.043-22.025-1.694-23.882-12.151-.385-2.166-2.279-3.624-4.379-3.624-.988 0-1.966.322-2.759.94-13.62 10.618-33.817-2.785-27.201-18.262a.03.03 0 0 1 .005-.007c5.033-10.207 20.874-9.301 24.702 1.164 1.092 2.981.915 6.2-.497 9.065a3.241 3.241 0 1 0 5.816 2.866c8.565-17.372-12.664-34.387-29.278-23.348l.003-.008c-4.322 3.946-20.726-1.201-20.726-14.746 0-5.304 2.81-10.252 7.517-13.264a20.579 20.579 0 0 0 8.757 1.953c5.811 0 11.577-2.405 15.468-7.015 7.571-8.97 1.267-14.845 7.705-21.564 7.915-8.268 22.993-3.427 23.255 7.912a3.23 3.23 0 0 0 3.315 3.166 3.242 3.242 0 0 0 3.166-3.316c-.437-19.067-26.887-25.346-36.883-9.036a19.317 19.317 0 0 0-3.762-3.721c-3.436-2.564-7.315 2.629-3.882 5.194 5.675 4.239 6.603 11.882 2.131 17.181-8.875 10.514-26.787 1.846-26.787-11.524 0-8.027 6.443-14.882 14.988-15.947 3.141-.392 4.871-3.753 3.362-6.465-5.88-10.615 2.451-23.194 15.044-23.433 5.277-.099 8.533 1.966 9.533 2.408l-.001.004 5.218 2.8-.002-.02c11.892 7.637 26.721-3.663 22.239-16.246-1.435-4.035-7.549-1.865-6.107 2.176 1.375 3.862-.793 8.216-5.224 9.613-4.284 1.351-9.11-.651-10.655-4.911-5.229-16.677 17.87-27.973 29.801-14.892v157.058zm67.8-42.038c-1.244-.202-2.781-.708-3.939-1.386-5.565-3.651-12.958-4.52-19.519-1.659-15.588 6.798-12.806 26.884-6.752 26.884 2.38 0 3.971-2.513 2.905-4.676-3.049-6.187-.1-13.413 6.44-16.265 8.836-3.855 20.201 2.006 18.889 13.704-.855 7.607-7.7 13.76-15.922 14.314-4.531.304-8.936-1.014-12.398-3.712-2.601-2.029-6.551-.62-7.136 2.682-1.859 10.461-13.716 16.195-23.883 12.152V83.161c12.243-13.424 35.478-1.016 29.78 14.937-2.381 6.684-12.399 7.072-15.517.8a7.039 7.039 0 0 1-.34-5.546 3.24 3.24 0 0 0-1.966-4.142c-6.606-2.357-8.215 15.697 5.24 19.939a15.275 15.275 0 0 0 13.539-2.173l.007.04c5.463-2.843 8.406-4.889 14.061-4.786 12.594.239 20.923 12.82 15.045 23.43-1.512 2.718.221 6.077 3.361 6.468 8.545 1.065 14.988 7.92 14.988 15.947 0 13.442-17.965 21.977-26.787 11.525-2.139-2.534-3.115-5.691-2.75-8.888.377-3.278 2.109-6.223 4.881-8.294 3.436-2.567-.449-7.758-3.882-5.194a19.344 19.344 0 0 0-3.762 3.721c-3.411-5.565-9.546-9.212-16.675-9.357-10.825-.22-19.97 8.028-20.208 18.392a3.242 3.242 0 0 0 3.166 3.316c1.741.041 3.275-1.376 3.315-3.166.157-6.798 6.278-12.201 13.594-12.059 3.744.076 7.174 1.549 9.661 4.147 3.764 3.929 3.243 7.987 3.391 8.987-.212 4.56 1.282 8.986 4.314 12.577 5.797 6.866 15.902 8.974 24.225 5.061 13.781 8.817 7.374 28.936-9.366 29.336z"/><path class="st1" d="M137.117 168.122c-4.281 0-4.288 6.472-.01 6.484 3.59.01 6.953 1.326 9.467 3.705 2.458 2.327 3.807 5.401 3.796 8.656-.02 6.66-5.831 12.286-13.355 12.286a3.242 3.242 0 0 0-.009 6.485h.062c17.674 0 26.368-20.394 13.962-32.135-6.564-6.216-14.913-5.481-13.913-5.481z"/><path class="st4" d="M117.94 250.001c-3.74 0-7.48-.775-10.964-2.327-5.858-2.608-10.326-7.048-12.783-12.645-10.874 5.283-22.284 1.926-29.098-4.076-7.452-6.563-10.097-15.933-7.2-24.934-9.192-2.047-16.306-8.548-18.862-17.426-2.442-8.483-.06-17.294 6.221-23.506-4.585-4.553-7.174-10.638-7.174-17.014 0-10.569 7.037-19.842 17.363-23.231-2.371-8.076-.316-16.485 5.691-22.862 6.373-6.766 15.593-9.583 24.623-7.693-.349-9.113 4.469-17.362 13.053-22.002 9.632-5.205 20.902-4.235 29.195 2.382 8.3-6.614 19.573-7.586 29.206-2.377 8.575 4.638 13.388 12.884 13.039 21.997 9.027-1.886 18.243.925 24.614 7.683 6.01 6.373 8.067 14.786 5.7 22.873 8.449 2.77 14.769 9.488 16.73 17.962 1.898 8.2-.539 16.375-6.538 22.287 6.28 6.212 8.66 15.022 6.215 23.505-2.562 8.885-9.673 15.386-18.858 17.428 2.896 9.001.245 18.376-7.216 24.946-6.81 5.995-18.213 9.345-29.084 4.06-2.457 5.595-6.922 10.033-12.777 12.641a26.996 26.996 0 0 1-21.032.382 26.938 26.938 0 0 1-10.064 1.947zm-22.693-19.81a2.002 2.002 0 0 1 1.9 1.377c1.821 5.551 5.889 9.973 11.456 12.451a22.963 22.963 0 0 0 18.592.033 1.986 1.986 0 0 1 1.616 0 22.98 22.98 0 0 0 18.597-.036c5.563-2.478 9.63-6.898 11.45-12.448a2 2 0 0 1 2.923-1.096c10.408 6.19 20.765 2.52 26.472-2.504 5.302-4.669 9.48-13.084 5.305-22.698a1.997 1.997 0 0 1 1.575-2.78c8.762-1.144 15.656-6.892 17.994-15.001 2.241-7.774-.236-15.572-6.626-20.858a1.999 1.999 0 0 1 0-3.082c6.038-4.994 8.616-12.411 6.896-19.842-1.777-7.678-7.859-13.645-15.872-15.572a2 2 0 0 1-1.395-2.673c2.823-7.225 1.262-14.98-4.177-20.748-5.982-6.346-14.932-8.587-23.358-5.853a2.003 2.003 0 0 1-1.918-.383 2.003 2.003 0 0 1-.674-1.836c1.635-10.213-4.453-17.458-10.696-20.834-8.648-4.678-18.837-3.512-25.957 2.965a2 2 0 0 1-2.693-.001c-7.114-6.478-17.298-7.642-25.946-2.968-6.249 3.377-12.344 10.625-10.708 20.838a2 2 0 0 1-2.592 2.219c-8.428-2.735-17.382-.49-23.366 5.861-5.437 5.771-6.995 13.524-4.167 20.738a2 2 0 0 1-1.395 2.674c-9.658 2.323-16.404 10.522-16.404 19.939 0 5.931 2.707 11.571 7.426 15.475a2 2 0 0 1 0 3.082c-6.389 5.285-8.867 13.082-6.628 20.856 2.333 8.102 9.229 13.85 17.998 15a2 2 0 0 1 1.574 2.78c-4.174 9.613-.004 18.021 5.289 22.684 5.71 5.03 16.074 8.71 26.486 2.521.314-.185.668-.28 1.023-.28z"/><path d="M128.004 7.998c-30.477 0-55.184 24.707-55.184 55.184 0 26.408 18.555 48.471 43.335 53.895l8.239 17.715c1.428 3.07 5.791 3.07 7.219 0l8.239-17.715c24.781-5.424 43.335-27.487 43.335-53.895.001-30.448-24.677-55.184-55.183-55.184z" style="fill:#a4c9ff"/><path class="st0" d="M114.323 69.913h27.628v12.825h-27.628zM149.262 93.659h-5.118a2.193 2.193 0 0 1-2.193-2.193v-30.28c0-1.211.982-2.193 2.193-2.193h5.118c1.211 0 2.193.982 2.193 2.193v30.28a2.193 2.193 0 0 1-2.193 2.193zM158.878 97.325h-5.34a2.082 2.082 0 0 1-2.082-2.082V57.407c0-1.15.932-2.082 2.082-2.082h5.34c1.15 0 2.082.932 2.082 2.082v37.836c0 1.15-.932 2.082-2.082 2.082zM168.271 90.308h-5.118a2.193 2.193 0 0 1-2.193-2.193V64.536c0-1.211.982-2.193 2.193-2.193h5.118c1.211 0 2.193.982 2.193 2.193v23.579a2.193 2.193 0 0 1-2.193 2.193zM107.012 58.992h5.118c1.211 0 2.193.982 2.193 2.193v30.28a2.193 2.193 0 0 1-2.193 2.193h-5.118a2.193 2.193 0 0 1-2.193-2.193v-30.28a2.192 2.192 0 0 1 2.193-2.193zM97.396 55.325h5.34c1.15 0 2.082.932 2.082 2.082v37.836c0 1.15-.932 2.082-2.082 2.082h-5.34a2.082 2.082 0 0 1-2.082-2.082V57.407c0-1.15.932-2.082 2.082-2.082zM88.002 62.343h5.118c1.211 0 2.193.982 2.193 2.193v23.579a2.193 2.193 0 0 1-2.193 2.193h-5.118a2.193 2.193 0 0 1-2.193-2.193V64.536c0-1.211.982-2.193 2.193-2.193z"/><path d="M148.585 31.907h-4.141a17.013 17.013 0 0 0-1.18-2.84c4.985-4.985 5.006-3.812-1.31-10.129a2.089 2.089 0 0 0-2.956 0l-2.931 2.931a17.013 17.013 0 0 0-2.84-1.18v-4.141c0-1.153-.938-2.09-2.09-2.09-8.986 0-8.088-.785-8.088 6.232-.977.306-1.932.702-2.84 1.18-3.068-3.068-3.288-3.543-4.409-3.543-.558 0-1.083.217-1.478.612-6.375 6.375-6.186 5.252-1.31 10.129a17.013 17.013 0 0 0-1.18 2.84h-4.141c-1.153 0-2.09.938-2.09 2.09v5.998c0 1.153.938 2.09 2.09 2.09h4.141c.306.978.702 1.932 1.18 2.84-4.984 4.984-5.004 3.814 1.31 10.129.395.395.92.612 1.478.612 1.112 0 1.316-.45 4.409-3.543.908.478 1.862.874 2.84 1.18v4.141c0 1.153.938 2.09 2.09 2.09 8.986 0 8.088.785 8.088-6.232a17.048 17.048 0 0 0 2.84-1.18c3.068 3.068 3.288 3.543 4.409 3.543.558 0 1.083-.217 1.478-.612 6.373-6.373 6.188-5.25 1.31-10.129.478-.908.874-1.862 1.18-2.84 7.134 0 6.232.725 6.232-8.088a2.094 2.094 0 0 0-2.091-2.09zm-10.411 5.089c0 5.535-4.503 10.037-10.037 10.037-5.535 0-10.037-4.503-10.037-10.037 0-5.534 4.503-10.037 10.037-10.037 5.534 0 10.037 4.503 10.037 10.037z" style="fill:#ffea94"/><path d="M128.137 26.212c-5.946 0-10.784 4.838-10.784 10.784 0 5.947 4.838 10.785 10.784 10.785 5.947 0 10.785-4.838 10.785-10.785 0-5.946-4.838-10.784-10.785-10.784zm0 16.438c-3.118 0-5.654-2.537-5.654-5.654s2.537-5.654 5.654-5.654c3.118 0 5.654 2.536 5.654 5.654s-2.537 5.654-5.654 5.654z" style="fill:#eaa97d"/><path class="st4" d="M128.004 139.094c-.001 0-.001 0 0 0a5.923 5.923 0 0 1-5.423-3.46l-7.827-16.826C89.237 112.746 70.82 89.514 70.82 63.182c0-31.531 25.653-57.184 57.184-57.184s57.184 25.652 57.184 57.184c0 26.332-18.417 49.564-43.935 55.626l-7.826 16.827a5.924 5.924 0 0 1-5.423 3.459zm0-129.096c-29.326 0-53.184 23.858-53.184 53.184 0 24.8 17.563 46.645 41.763 51.94.61.134 1.123.545 1.386 1.11l8.24 17.715c.494 1.063 1.5 1.146 1.795 1.146.296 0 1.302-.083 1.796-1.146l8.239-17.715a2.003 2.003 0 0 1 1.386-1.11c24.199-5.296 41.763-27.141 41.763-51.94-.001-29.326-23.859-53.184-53.184-53.184z"/></svg>